<svg width="181" height="195" viewBox="0 0 181 195" fill="none" xmlns="http://www.w3.org/2000/svg">
<path d="M0 58.6C7.32 48.15 17.99 35.14 33.03 22.44C44.86 12.45 56.36 5.2 66.06 0C104.17 24.05 142.28 48.1 180.39 72.15C156.46 62.54 119.34 51.13 73.04 50.49C44.08 50.09 19.23 54.01 0 58.59V58.6Z" fill="#80C160"/>
<path d="M2 61.0901C11.16 59.0301 21.35 57.2001 32.46 55.9201C41.44 54.8801 50.5 54.1201 57.71 54.1201C59.68 57.5301 62.59 62.2301 66.52 67.5401C66.52 67.5401 70.11 72.2701 74.4 77.3001C89.11 94.5901 104.35 107.6 117.59 117.2C116.42 116.92 114.65 116.5 112.51 115.95C77.07 106.92 51.68 93.5201 42.65 88.5201C31.56 82.3801 17.35 73.5201 2 61.0901Z" fill="#80C160"/>
<path d="M115.94 118.71C101 126.67 81.6199 139.12 62.5799 158.15C49.9099 170.81 40.4099 183.37 33.3799 194.18C29.3899 189.66 21.3699 179.29 18.6799 163.88C16.8299 153.26 18.23 144.41 19.55 139.05C51.68 132.27 83.8099 125.49 115.94 118.71Z" fill="#80C160"/>
<path d="M66.69 158.78C61.62 163.7 56.2799 169.3 50.8799 175.64C45.1899 182.33 40.28 188.83 36.08 194.91C47.47 190.4 61.5199 185.97 77.9099 183.11C106.1 178.2 130.33 179.87 147.48 182.54C135.72 176.94 121.41 171.18 104.72 166.5C90.79 162.6 77.9399 160.22 66.6799 158.78H66.69Z" fill="#33A138"/>
</svg>
