<svg width="968" height="196" viewBox="0 0 968 196" fill="none" xmlns="http://www.w3.org/2000/svg">
<path d="M218.4 171.83L236.81 44.2798H238.8L291.51 148.92L343.86 44.2798H345.85L364.44 171.83H351.62L338.98 80.5198L293.13 171.83H289.88L243.49 79.8098L230.85 171.83H218.39H218.4Z" fill="#33A138"/>
<path d="M481.61 77.5V171.83H469.52V155.67C458.57 168.58 446.05 175.03 431.97 175.03C417.89 175.03 406.01 170.09 396.32 160.2C386.63 150.31 381.79 138.53 381.79 124.85C381.79 111.17 386.66 99.45 396.41 89.68C406.16 79.91 417.83 75.02 431.43 75.02C447.07 75.02 459.77 81.59 469.52 94.74V77.51H481.61V77.5ZM470.24 125.11C470.24 114.33 466.57 105.24 459.23 97.84C451.89 90.44 442.89 86.74 432.24 86.74C421.59 86.74 412.59 90.56 405.25 98.2C397.91 105.84 394.24 114.87 394.24 125.29C394.24 135.71 397.97 144.74 405.43 152.38C412.89 160.02 421.82 163.84 432.23 163.84C442.64 163.84 451.57 160.17 459.04 152.83C466.5 145.49 470.23 136.25 470.23 125.12L470.24 125.11Z" fill="#33A138"/>
<path d="M540.78 132.39L512.98 171.83H498.36L533.38 122.09L501.79 77.5H516.59L540.78 111.61L564.78 77.5H579.58L548.17 121.91L583.73 171.83H568.75L540.77 132.39H540.78Z" fill="#33A138"/>
<path d="M592.23 51.2101C592.23 48.4901 593.22 46.1201 595.21 44.1001C597.2 42.0901 599.6 41.0801 602.43 41.0801C605.26 41.0801 607.66 42.0601 609.65 44.0101C611.64 45.9701 612.63 48.3401 612.63 51.1201C612.63 53.9001 611.64 56.2701 609.65 58.2301C607.66 60.1801 605.26 61.1601 602.43 61.1601C599.6 61.1601 597.19 60.1601 595.21 58.1401C593.23 56.1301 592.23 53.8201 592.23 51.2101ZM596.2 77.5001H608.66V171.83H596.2V77.5001Z" fill="#33A138"/>
<path d="M657.39 156.91C657.39 160.11 657.81 162 658.65 162.59C659.49 163.19 661.66 163.48 665.15 163.48H672.55V173.78C667.5 174.61 663.52 175.02 660.64 175.02C655.22 175.02 651.25 173.72 648.73 171.11C646.2 168.51 644.94 164.42 644.94 158.85V87.7898H627.97V77.4898H644.94V41.0698H657.4V77.4898H676.89V87.7898H657.4V156.9L657.39 156.91Z" fill="#33A138"/>
<path d="M718.58 156.91C718.58 160.11 719 162 719.84 162.59C720.68 163.19 722.85 163.48 726.34 163.48H733.74V173.78C728.69 174.61 724.71 175.02 721.83 175.02C716.41 175.02 712.44 173.72 709.92 171.11C707.39 168.51 706.13 164.42 706.13 158.85V87.7898H689.16V77.4898H706.13V41.0698H718.59V77.4898H738.08V87.7898H718.59V156.9L718.58 156.91Z" fill="#33A138"/>
<path d="M837.17 141.28L847.64 146.61C837.29 165.56 822.01 175.03 801.79 175.03C787.35 175.03 775.44 170.14 766.05 160.37C756.66 150.6 751.97 138.85 751.97 125.11C751.97 111.37 756.69 99.5898 766.14 89.7598C775.59 79.9298 787.26 75.0098 801.16 75.0098C815.06 75.0098 826.73 79.5698 836.18 88.6898C845.63 97.8098 850.53 110.25 850.89 126H764.61C764.97 137.37 768.61 146.52 775.53 153.45C782.45 160.38 790.84 163.84 800.71 163.84C816.95 163.84 829.11 156.32 837.17 141.28ZM837.17 115.52C835.48 106.52 831.27 99.4698 824.53 94.3798C817.79 89.2898 810.03 86.7398 801.25 86.7398C783.2 86.7398 771.4 96.3298 765.87 115.52H837.17Z" fill="#33A138"/>
<path d="M0.77002 59.0902C8.09002 48.6402 18.76 35.6302 33.8 22.9302C45.63 12.9402 57.13 5.69023 66.83 0.490234C104.94 24.5402 143.05 48.5902 181.16 72.6402C157.23 63.0302 120.11 51.6202 73.81 50.9802C44.85 50.5802 20 54.5002 0.77002 59.0802V59.0902Z" fill="#80C160"/>
<path d="M2.77002 61.5799C11.93 59.5199 22.12 57.6899 33.23 56.4099C42.21 55.3699 51.27 54.6099 58.48 54.6099C60.45 58.0199 63.36 62.7199 67.29 68.0299C67.29 68.0299 70.88 72.7599 75.17 77.7899C89.88 95.0799 105.12 108.09 118.36 117.69C117.19 117.41 115.42 116.99 113.28 116.44C77.84 107.41 52.45 94.0099 43.42 89.0099C32.33 82.8699 18.12 74.0099 2.77002 61.5799Z" fill="#80C160"/>
<path d="M116.71 119.2C101.77 127.16 82.39 139.61 63.35 158.64C50.68 171.3 41.18 183.86 34.15 194.67C30.16 190.15 22.14 179.78 19.45 164.37C17.6 153.75 19 144.9 20.32 139.54C52.45 132.76 84.58 125.98 116.71 119.2Z" fill="#80C160"/>
<path d="M67.46 159.27C62.39 164.19 57.05 169.79 51.65 176.13C45.96 182.82 41.05 189.32 36.85 195.4C48.24 190.89 62.29 186.46 78.68 183.6C106.87 178.69 131.1 180.36 148.25 183.03C136.49 177.43 122.18 171.67 105.49 166.99C91.56 163.09 78.71 160.71 67.45 159.27H67.46Z" fill="#33A138"/>
<path d="M930.88 66.9701C916.2 64.7301 901.56 69.3401 891.38 79.1001C888.25 81.7101 885.04 85.7301 881.75 91.1801V77.5001H869.11V171.83H881.75V139.85C881.75 124.1 882.53 113.23 884.1 107.25C885.66 101.27 888.1 96.3901 891.41 92.5901C892.19 91.7001 892.97 90.9301 893.77 90.2501C900.44 96.3001 911.95 104.16 928.06 105.68C948.89 107.64 963.88 97.7001 967.79 94.9201C967.36 93.9301 956.87 70.9201 930.89 66.9601L930.88 66.9701Z" fill="#33A138"/>
<path d="M898.79 86.5098C903.21 83.7098 912.62 78.6998 925.39 79.0098C939.25 79.3398 949.53 85.7698 954.01 88.9798" stroke="white" stroke-width="1.93" stroke-miterlimit="10"/>
</svg>
