<svg width="1068" height="196" viewBox="0 0 1068 196" fill="none" xmlns="http://www.w3.org/2000/svg">
<path d="M318.4 171.83L336.81 44.28H338.8L391.51 148.92L443.86 44.28H445.85L464.44 171.83H451.62L438.98 80.52L393.13 171.83H389.88L343.49 79.81L330.85 171.83H318.39H318.4Z" fill="#33A138"/>
<path d="M581.61 77.5V171.83H569.52V155.67C558.57 168.58 546.05 175.03 531.97 175.03C517.89 175.03 506.01 170.09 496.32 160.2C486.63 150.31 481.79 138.53 481.79 124.85C481.79 111.17 486.66 99.45 496.41 89.68C506.16 79.91 517.83 75.02 531.43 75.02C547.07 75.02 559.77 81.59 569.52 94.74V77.51H581.61V77.5ZM570.24 125.11C570.24 114.33 566.57 105.24 559.23 97.84C551.89 90.44 542.89 86.74 532.24 86.74C521.59 86.74 512.59 90.56 505.25 98.2C497.91 105.84 494.24 114.87 494.24 125.29C494.24 135.71 497.97 144.74 505.43 152.38C512.89 160.02 521.82 163.84 532.23 163.84C542.64 163.84 551.57 160.17 559.04 152.83C566.5 145.49 570.23 136.25 570.23 125.12L570.24 125.11Z" fill="#33A138"/>
<path d="M640.78 132.39L612.98 171.83H598.36L633.38 122.09L601.79 77.5H616.59L640.78 111.61L664.78 77.5H679.58L648.17 121.91L683.73 171.83H668.75L640.77 132.39H640.78Z" fill="#33A138"/>
<path d="M692.23 51.2101C692.23 48.4901 693.22 46.1201 695.21 44.1001C697.2 42.0901 699.6 41.0801 702.43 41.0801C705.26 41.0801 707.66 42.0601 709.65 44.0101C711.64 45.9701 712.63 48.3401 712.63 51.1201C712.63 53.9001 711.64 56.2701 709.65 58.2301C707.66 60.1801 705.26 61.1601 702.43 61.1601C699.6 61.1601 697.19 60.1601 695.21 58.1401C693.23 56.1301 692.23 53.8201 692.23 51.2101ZM696.2 77.5001H708.66V171.83H696.2V77.5001Z" fill="#33A138"/>
<path d="M757.39 156.91C757.39 160.11 757.81 162 758.65 162.59C759.49 163.19 761.66 163.48 765.15 163.48H772.55V173.78C767.5 174.61 763.52 175.02 760.64 175.02C755.22 175.02 751.25 173.72 748.73 171.11C746.2 168.51 744.94 164.42 744.94 158.85V87.7901H727.97V77.4901H744.94V41.0701H757.4V77.4901H776.89V87.7901H757.4V156.9L757.39 156.91Z" fill="#33A138"/>
<path d="M818.58 156.91C818.58 160.11 819 162 819.84 162.59C820.68 163.19 822.85 163.48 826.34 163.48H833.74V173.78C828.69 174.61 824.71 175.02 821.83 175.02C816.41 175.02 812.44 173.72 809.92 171.11C807.39 168.51 806.13 164.42 806.13 158.85V87.7901H789.16V77.4901H806.13V41.0701H818.59V77.4901H838.08V87.7901H818.59V156.9L818.58 156.91Z" fill="#33A138"/>
<path d="M937.17 141.28L947.64 146.61C937.29 165.56 922.01 175.03 901.79 175.03C887.35 175.03 875.44 170.14 866.05 160.37C856.66 150.6 851.97 138.85 851.97 125.11C851.97 111.37 856.69 99.59 866.14 89.76C875.59 79.93 887.26 75.01 901.16 75.01C915.06 75.01 926.73 79.57 936.18 88.69C945.63 97.81 950.53 110.25 950.89 126H864.61C864.97 137.37 868.61 146.52 875.53 153.45C882.45 160.38 890.84 163.84 900.71 163.84C916.95 163.84 929.11 156.32 937.17 141.28ZM937.17 115.52C935.48 106.52 931.27 99.47 924.53 94.38C917.79 89.29 910.03 86.74 901.25 86.74C883.2 86.74 871.4 96.33 865.87 115.52H937.17Z" fill="#33A138"/>
<path d="M100.77 59.09C108.09 48.64 118.76 35.63 133.8 22.93C145.63 12.94 157.13 5.68999 166.83 0.48999C204.94 24.54 243.05 48.59 281.16 72.64C257.23 63.03 220.11 51.62 173.81 50.98C144.85 50.58 120 54.5 100.77 59.08V59.09Z" fill="#80C160"/>
<path d="M102.77 61.5801C111.93 59.5201 122.12 57.6901 133.23 56.4101C142.21 55.3701 151.27 54.6101 158.48 54.6101C160.45 58.0201 163.36 62.7201 167.29 68.0301C167.29 68.0301 170.88 72.7601 175.17 77.7901C189.88 95.0801 205.12 108.09 218.36 117.69C217.19 117.41 215.42 116.99 213.28 116.44C177.84 107.41 152.45 94.0101 143.42 89.0101C132.33 82.8701 118.12 74.0101 102.77 61.5801Z" fill="#80C160"/>
<path d="M216.71 119.2C201.77 127.16 182.39 139.61 163.35 158.64C150.68 171.3 141.18 183.86 134.15 194.67C130.16 190.15 122.14 179.78 119.45 164.37C117.6 153.75 119 144.9 120.32 139.54C152.45 132.76 184.58 125.98 216.71 119.2Z" fill="#80C160"/>
<path d="M167.46 159.27C162.39 164.19 157.05 169.79 151.65 176.13C145.96 182.82 141.05 189.32 136.85 195.4C148.24 190.89 162.29 186.46 178.68 183.6C206.87 178.69 231.1 180.36 248.25 183.03C236.49 177.43 222.18 171.67 205.49 166.99C191.56 163.09 178.71 160.71 167.45 159.27H167.46Z" fill="#33A138"/>
<path d="M1030.88 66.9701C1016.2 64.7301 1001.56 69.3401 991.38 79.1001C988.25 81.7101 985.04 85.7301 981.75 91.1801V77.5001H969.11V171.83H981.75V139.85C981.75 124.1 982.53 113.23 984.1 107.25C985.66 101.27 988.1 96.3901 991.41 92.5901C992.19 91.7001 992.97 90.9301 993.77 90.2501C1000.44 96.3001 1011.95 104.16 1028.06 105.68C1048.89 107.64 1063.88 97.7001 1067.79 94.9201C1067.36 93.9301 1056.87 70.9201 1030.89 66.9601L1030.88 66.9701Z" fill="#33A138"/>
<path d="M998.79 86.5101C1003.21 83.7101 1012.62 78.7001 1025.39 79.0101C1039.25 79.3401 1049.53 85.7701 1054.01 88.9801" stroke="white" stroke-width="1.93" stroke-miterlimit="10"/>
</svg>
